<svg width="78" height="78" viewBox="0 0 78 78" fill="none" xmlns="http://www.w3.org/2000/svg">
    <path fill-rule="evenodd" clip-rule="evenodd"
        d="M39 5.44186C20.4664 5.44186 5.44186 20.4664 5.44186 39C5.44186 57.5336 20.4664 72.5581 39 72.5581C57.5336 72.5581 72.5581 57.5336 72.5581 39C72.5581 20.4664 57.5336 5.44186 39 5.44186ZM0 39C0 17.4609 17.4609 0 39 0C60.5391 0 78 17.4609 78 39C78 60.5391 60.5391 78 39 78C17.4609 78 0 60.5391 0 39Z"
        fill="#FD9942" />
    <path fill-rule="evenodd" clip-rule="evenodd"
        d="M39.0002 21.7675C40.503 21.7675 41.7212 22.9857 41.7212 24.4884V39C41.7212 40.5027 40.503 41.7209 39.0002 41.7209C37.4975 41.7209 36.2793 40.5027 36.2793 39V24.4884C36.2793 22.9857 37.4975 21.7675 39.0002 21.7675Z"
        fill="#FD9942" />
    <path fill-rule="evenodd" clip-rule="evenodd"
        d="M36.2793 53.5116C36.2793 52.0089 37.4975 50.7907 39.0002 50.7907H39.0365C40.5392 50.7907 41.7574 52.0089 41.7574 53.5116C41.7574 55.0144 40.5392 56.2326 39.0365 56.2326H39.0002C37.4975 56.2326 36.2793 55.0144 36.2793 53.5116Z"
        fill="#FD9942" />
</svg>
