<svg width="78" height="78" viewBox="0 0 78 78" fill="none" xmlns="http://www.w3.org/2000/svg">
    <path fill-rule="evenodd" clip-rule="evenodd"
        d="M39 5.44186C20.4664 5.44186 5.44186 20.4664 5.44186 39C5.44186 57.5336 20.4664 72.5581 39 72.5581C57.5336 72.5581 72.5581 57.5336 72.5581 39C72.5581 20.4664 57.5336 5.44186 39 5.44186ZM0 39C0 17.4609 17.4609 0 39 0C60.5391 0 78 17.4609 78 39C78 60.5391 60.5391 78 39 78C17.4609 78 0 60.5391 0 39Z"
        fill="#383838" />
    <path fill-rule="evenodd" clip-rule="evenodd"
        d="M51.8076 26.1923C52.8702 27.2549 52.8702 28.9777 51.8076 30.0403L30.0402 51.8077C28.9776 52.8703 27.2548 52.8703 26.1922 51.8077C25.1296 50.7451 25.1296 49.0223 26.1922 47.9597L47.9596 26.1923C49.0222 25.1297 50.745 25.1297 51.8076 26.1923Z"
        fill="#383838" />
    <path fill-rule="evenodd" clip-rule="evenodd"
        d="M26.1922 26.1923C27.2548 25.1297 28.9776 25.1297 30.0402 26.1923L51.8076 47.9597C52.8702 49.0223 52.8702 50.7451 51.8076 51.8077C50.745 52.8703 49.0222 52.8703 47.9596 51.8077L26.1922 30.0403C25.1296 28.9777 25.1296 27.2549 26.1922 26.1923Z"
        fill="#383838" />
</svg>
