<svg width="22" height="22" viewBox="0 0 22 22" fill="none" xmlns="http://www.w3.org/2000/svg">
    <path
        d="M22.0001 11.2444C22.0001 10.34 21.9253 9.68001 21.7632 8.99557H11.2246V13.0777H17.4105C17.2858 14.0922 16.6124 15.62 15.1157 16.6466L15.0948 16.7833L18.4269 19.313L18.6577 19.3356C20.7779 17.4167 22.0001 14.5933 22.0001 11.2444Z"
        fill="#4285F4" />
    <path
        d="M11.2245 22C14.2551 22 16.7993 21.0222 18.6576 19.3356L15.1157 16.6466C14.1678 17.2944 12.8957 17.7466 11.2245 17.7466C8.25629 17.7466 5.73703 15.8278 4.83898 13.1756L4.70735 13.1865L1.24258 15.8143L1.19727 15.9377C3.04306 19.531 6.83446 22 11.2245 22Z"
        fill="#34A853" />
    <path
        d="M4.83897 13.1756C4.60201 12.4911 4.46487 11.7577 4.46487 11C4.46487 10.2422 4.60201 9.50886 4.8265 8.82443L4.82022 8.67866L1.31203 6.00867L1.19725 6.06217C0.436514 7.5533 0 9.22778 0 11C0 12.7722 0.436514 14.4466 1.19725 15.9377L4.83897 13.1756Z"
        fill="#FBBC05" />
    <path
        d="M11.2245 4.2533C13.3322 4.2533 14.754 5.14552 15.5646 5.89113L18.7324 2.86C16.7869 1.08778 14.2551 0 11.2245 0C6.83446 0 3.04306 2.46887 1.19727 6.06217L4.82651 8.82443C5.73703 6.17221 8.25629 4.2533 11.2245 4.2533Z"
        fill="#EB4335" />
</svg>
