<svg width="28" height="28" viewBox="0 0 28 28" fill="none" xmlns="http://www.w3.org/2000/svg">
    <path
        d="M21 9.33334C21 7.47683 20.2625 5.69635 18.9497 4.3836C17.637 3.07084 15.8565 2.33334 14 2.33334C12.1435 2.33334 10.363 3.07084 9.05025 4.3836C7.7375 5.69635 7 7.47683 7 9.33334C7 17.5 3.5 19.8333 3.5 19.8333H24.5C24.5 19.8333 21 17.5 21 9.33334Z"
        stroke="#383838" stroke-width="2" stroke-linecap="round" stroke-linejoin="round" />
    <path
        d="M16.0181 24.5C15.813 24.8536 15.5186 25.1471 15.1644 25.3511C14.8102 25.5551 14.4086 25.6625 13.9998 25.6625C13.591 25.6625 13.1894 25.5551 12.8352 25.3511C12.481 25.1471 12.1866 24.8536 11.9814 24.5"
        stroke="#383838" stroke-width="2" stroke-linecap="round" stroke-linejoin="round" />
</svg>
