<svg width="28" height="28" viewBox="0 0 28 28" fill="none" xmlns="http://www.w3.org/2000/svg">
    <path
        d="M14 17.5C15.933 17.5 17.5 15.933 17.5 14C17.5 12.067 15.933 10.5 14 10.5C12.067 10.5 10.5 12.067 10.5 14C10.5 15.933 12.067 17.5 14 17.5Z"
        stroke="#383838" stroke-width="2" stroke-linecap="round" stroke-linejoin="round" />
    <path
        d="M22.6333 17.5001C22.478 17.852 22.4317 18.2423 22.5003 18.6208C22.5689 18.9992 22.7493 19.3485 23.0183 19.6234L23.0883 19.6934C23.3052 19.9101 23.4773 20.1675 23.5948 20.4507C23.7122 20.734 23.7726 21.0376 23.7726 21.3442C23.7726 21.6509 23.7122 21.9545 23.5948 22.2378C23.4773 22.521 23.3052 22.7784 23.0883 22.9951C22.8716 23.212 22.6142 23.3841 22.331 23.5016C22.0477 23.619 21.7441 23.6794 21.4375 23.6794C21.1308 23.6794 20.8272 23.619 20.5439 23.5016C20.2607 23.3841 20.0033 23.212 19.7866 22.9951L19.7166 22.9251C19.4417 22.6561 19.0924 22.4757 18.714 22.4071C18.3355 22.3385 17.9452 22.3848 17.5933 22.5401C17.2482 22.688 16.9539 22.9335 16.7467 23.2465C16.5394 23.5595 16.4281 23.9263 16.4266 24.3017V24.5001C16.4266 25.1189 16.1808 25.7124 15.7432 26.15C15.3056 26.5876 14.7121 26.8334 14.0933 26.8334C13.4745 26.8334 12.881 26.5876 12.4434 26.15C12.0058 25.7124 11.76 25.1189 11.76 24.5001V24.3951C11.7509 24.0089 11.6259 23.6344 11.4012 23.3202C11.1765 23.0061 10.8625 22.7667 10.5 22.6334C10.1481 22.4781 9.75773 22.4318 9.37927 22.5004C9.00081 22.569 8.65158 22.7495 8.37663 23.0184L8.30663 23.0884C8.08992 23.3054 7.83258 23.4775 7.54932 23.5949C7.26606 23.7123 6.96243 23.7727 6.65579 23.7727C6.34916 23.7727 6.04553 23.7123 5.76227 23.5949C5.479 23.4775 5.22166 23.3054 5.00496 23.0884C4.78801 22.8717 4.61591 22.6144 4.49849 22.3311C4.38106 22.0478 4.32062 21.7442 4.32062 21.4376C4.32062 21.1309 4.38106 20.8273 4.49849 20.5441C4.61591 20.2608 4.78801 20.0035 5.00496 19.7867L5.07496 19.7167C5.34392 19.4418 5.52434 19.0926 5.59296 18.7141C5.66159 18.3356 5.61526 17.9453 5.45996 17.5934C5.31207 17.2483 5.06651 16.9541 4.7535 16.7468C4.4405 16.5395 4.07371 16.4282 3.69829 16.4267H3.49996C2.88112 16.4267 2.28763 16.1809 1.85004 15.7433C1.41246 15.3057 1.16663 14.7123 1.16663 14.0934C1.16663 13.4746 1.41246 12.8811 1.85004 12.4435C2.28763 12.0059 2.88112 11.7601 3.49996 11.7601H3.60496C3.99112 11.751 4.36563 11.6261 4.67981 11.4013C4.99398 11.1766 5.23329 10.8626 5.36663 10.5001C5.52193 10.1482 5.56825 9.75786 5.49963 9.37939C5.43101 9.00093 5.25059 8.65171 4.98163 8.37675L4.91163 8.30675C4.69468 8.09004 4.52258 7.8327 4.40515 7.54944C4.28773 7.26618 4.22729 6.96255 4.22729 6.65591C4.22729 6.34928 4.28773 6.04565 4.40515 5.76239C4.52258 5.47912 4.69468 5.22179 4.91163 5.00508C5.12833 4.78814 5.38567 4.61603 5.66893 4.49861C5.95219 4.38119 6.25582 4.32075 6.56246 4.32075C6.8691 4.32075 7.17272 4.38119 7.45599 4.49861C7.73925 4.61603 7.99659 4.78814 8.21329 5.00508L8.28329 5.07508C8.55825 5.34404 8.90748 5.52446 9.28594 5.59309C9.6644 5.66171 10.0547 5.61538 10.4066 5.46008H10.5C10.845 5.31219 11.1393 5.06663 11.3466 4.75362C11.5539 4.44062 11.6651 4.07383 11.6666 3.69841V3.50008C11.6666 2.88124 11.9125 2.28775 12.35 1.85017C12.7876 1.41258 13.3811 1.16675 14 1.16675C14.6188 1.16675 15.2123 1.41258 15.6499 1.85017C16.0875 2.28775 16.3333 2.88124 16.3333 3.50008V3.60508C16.3348 3.9805 16.446 4.34729 16.6533 4.66029C16.8606 4.9733 17.1549 5.21886 17.5 5.36675C17.8518 5.52205 18.2422 5.56838 18.6206 5.49975C18.9991 5.43113 19.3483 5.25071 19.6233 4.98175L19.6933 4.91175C19.91 4.6948 20.1673 4.5227 20.4506 4.40528C20.7339 4.28785 21.0375 4.22741 21.3441 4.22741C21.6508 4.22741 21.9544 4.28785 22.2377 4.40528C22.5209 4.5227 22.7783 4.6948 22.995 4.91175C23.2119 5.12845 23.384 5.38579 23.5014 5.66905C23.6189 5.95232 23.6793 6.25595 23.6793 6.56258C23.6793 6.86922 23.6189 7.17285 23.5014 7.45611C23.384 7.73937 23.2119 7.99671 22.995 8.21341L22.925 8.28341C22.656 8.55837 22.4756 8.9076 22.407 9.28606C22.3383 9.66452 22.3847 10.0549 22.54 10.4067V10.5001C22.6878 10.8451 22.9334 11.1394 23.2464 11.3467C23.5594 11.554 23.9262 11.6653 24.3016 11.6667H24.5C25.1188 11.6667 25.7123 11.9126 26.1499 12.3502C26.5875 12.7878 26.8333 13.3812 26.8333 14.0001C26.8333 14.6189 26.5875 15.2124 26.1499 15.65C25.7123 16.0876 25.1188 16.3334 24.5 16.3334H24.395C24.0195 16.3349 23.6528 16.4462 23.3397 16.6534C23.0267 16.8607 22.7812 17.155 22.6333 17.5001V17.5001Z"
        stroke="#383838" stroke-width="2" stroke-linecap="round" stroke-linejoin="round" />
</svg>
