<svg width="78" height="78" viewBox="0 0 78 78" fill="none" xmlns="http://www.w3.org/2000/svg">
    <path fill-rule="evenodd" clip-rule="evenodd"
        d="M52.6582 8.34707C46.0481 5.4018 38.663 4.67215 31.6044 6.26695C24.5458 7.86176 18.1918 11.6956 13.49 17.1966C8.7883 22.6976 5.99075 29.5711 5.51461 36.792C5.03846 44.0129 6.90925 51.1942 10.8479 57.265C14.7866 63.3358 20.5822 67.9707 27.3703 70.4785C34.1584 72.9864 41.5754 73.2328 48.5149 71.181C55.4545 69.1292 61.5449 64.8891 65.8778 59.0931C70.2107 53.2971 72.554 46.2557 72.5581 39.0192V35.6831C72.5581 34.1804 73.7763 32.9622 75.2791 32.9622C76.7818 32.9622 78 34.1804 78 35.6831V39.0208C77.9952 47.4308 75.2719 55.6155 70.2364 62.3514C65.2008 69.0873 58.1228 74.015 50.0579 76.3995C41.993 78.784 33.3733 78.4977 25.4844 75.5832C17.5956 72.6686 10.8602 67.2821 6.28274 60.2269C1.70534 53.1716 -0.468814 44.8258 0.0845395 36.4339C0.637893 28.0421 3.88911 20.054 9.35329 13.6609C14.8175 7.26782 22.2019 2.81231 30.4051 0.958892C38.6084 -0.894529 47.191 -0.0465632 54.873 3.37632C56.2456 3.98793 56.8626 5.59648 56.251 6.96911C55.6394 8.34175 54.0308 8.95868 52.6582 8.34707Z"
        fill="#18AF7C" />
    <path fill-rule="evenodd" clip-rule="evenodd"
        d="M77.2113 7.30537C78.2622 8.37997 78.263 10.1231 77.2132 11.1988L41.3511 47.9427C40.8468 48.4594 40.1625 48.7498 39.4489 48.75C38.7354 48.7502 38.051 48.4601 37.5464 47.9436L26.7878 36.9315C25.7374 35.8564 25.7374 34.1132 26.7878 33.0381C27.8382 31.963 29.5412 31.963 30.5915 33.0381L39.4473 42.1026L73.4075 7.30732C74.4574 6.23165 76.1604 6.23078 77.2113 7.30537Z"
        fill="#18AF7C" />
</svg>
