<svg width="28" height="28" viewBox="0 0 28 28" fill="none" xmlns="http://www.w3.org/2000/svg">
    <path d="M3.5 7H5.83333H24.5" stroke="#F31629" stroke-width="2" stroke-linecap="round"
        stroke-linejoin="round" />
    <path
        d="M9.33331 6.99992V4.66659C9.33331 4.04775 9.57915 3.45425 10.0167 3.01667C10.4543 2.57908 11.0478 2.33325 11.6666 2.33325H16.3333C16.9522 2.33325 17.5456 2.57908 17.9832 3.01667C18.4208 3.45425 18.6666 4.04775 18.6666 4.66659V6.99992M22.1666 6.99992V23.3333C22.1666 23.9521 21.9208 24.5456 21.4832 24.9832C21.0456 25.4208 20.4522 25.6666 19.8333 25.6666H8.16665C7.54781 25.6666 6.95432 25.4208 6.51673 24.9832C6.07915 24.5456 5.83331 23.9521 5.83331 23.3333V6.99992H22.1666Z"
        stroke="#F31629" stroke-width="2" stroke-linecap="round" stroke-linejoin="round" />
</svg>
